<svg width="184" height="125" viewBox="0 0 184 125" fill="none" xmlns="http://www.w3.org/2000/svg">
<path d="M115.625 53.25L107.562 58.5C98 64.5 86.1875 64.5 76.625 58.5L68.5625 53.25C66.6875 52.125 65.5625 50.0625 65.5625 47.8125V36.5625H118.625V47.8125C118.438 50.0625 117.312 52.125 115.625 53.25Z" fill="#14B8A6"/>
<path d="M118.437 36.5625H65.5625V45.1875L85.625 56.8125C89.5625 59.25 94.625 59.25 98.5625 56.8125L118.625 45.1875V36.5625H118.437Z" fill="#033D36"/>
<path d="M115.625 53.25L107.562 58.5C98 64.5 86.1875 64.5 76.625 58.5L68.5625 53.25C66.6875 52.125 65.5625 50.0625 65.5625 47.8125V36.5625H118.625V47.8125C118.438 50.0625 117.312 52.125 115.625 53.25Z" stroke="url(#paint0_linear_3041_2783)" stroke-miterlimit="10" stroke-linecap="round" stroke-linejoin="round"/>
<path opacity="0.15" d="M92 85.875C105.462 85.875 116.375 84.4479 116.375 82.6875C116.375 80.9271 105.462 79.5 92 79.5C78.5381 79.5 67.625 80.9271 67.625 82.6875C67.625 84.4479 78.5381 85.875 92 85.875Z" fill="url(#paint1_linear_3041_2783)"/>
<path d="M57.6876 33.75L85.4376 50.0625C89.3751 52.5 94.4376 52.5 98.3751 50.0625L126.313 33.75C131.563 30.75 131.375 23.0625 125.938 20.25L98.0001 5.625C94.2501 3.5625 89.7501 3.5625 86.0001 5.625L58.0626 20.4375C52.6251 23.25 52.4376 30.75 57.6876 33.75Z" fill="#14B8A6"/>
<path d="M58.0626 29.0625L86.0001 17.8125C89.7501 16.3125 94.2501 16.3125 98.0001 17.8125L125.938 29.0625C127.063 29.5474 128.082 30.2481 128.938 31.125C131.188 27.5625 130.063 22.5 125.938 20.25L98.0001 5.625C94.2501 3.5625 89.7501 3.5625 86.0001 5.625L58.0626 20.4375C53.9376 22.6875 53.0001 27.75 55.0626 31.3125C55.6251 30.375 56.7501 29.625 58.0626 29.0625Z" fill="#14B8A6"/>
<path d="M57.6876 33.75L85.4376 50.0625C89.3751 52.5 94.4376 52.5 98.3751 50.0625L126.313 33.75C131.563 30.75 131.375 23.0625 125.938 20.25L98.0001 5.625C94.2501 3.5625 89.7501 3.5625 86.0001 5.625L58.0626 20.25C52.6251 23.0625 52.4376 30.75 57.6876 33.75Z" stroke="url(#paint2_linear_3041_2783)" stroke-miterlimit="10" stroke-linecap="round" stroke-linejoin="round"/>
<path d="M88.8125 28.125L70.0625 40.3125V67.3125" stroke="url(#paint3_linear_3041_2783)" stroke-miterlimit="10" stroke-linecap="round" stroke-linejoin="round"/>
<path d="M68.9376 71.25L65.5626 81.1875C65.1876 82.3125 65.5626 83.4375 66.5001 84C67.4376 84.5625 68.7501 85.3125 70.2501 85.3125C71.7501 85.3125 73.0626 84.75 74.0001 84C74.9376 83.4375 75.1251 82.125 74.9376 81.1875L71.3751 71.25H68.9376Z" fill="#FFE500" stroke="url(#paint4_linear_3041_2783)" stroke-miterlimit="10" stroke-linecap="round" stroke-linejoin="round"/>
<path d="M70.0625 75.1875C72.2371 75.1875 74 73.4246 74 71.25C74 69.0754 72.2371 67.3125 70.0625 67.3125C67.8879 67.3125 66.125 69.0754 66.125 71.25C66.125 73.4246 67.8879 75.1875 70.0625 75.1875Z" fill="#FFE500" stroke="url(#paint5_linear_3041_2783)" stroke-miterlimit="10" stroke-linecap="round" stroke-linejoin="round"/>
<path d="M92 28.6875C94.7959 28.6875 97.0625 27.5122 97.0625 26.0625C97.0625 24.6128 94.7959 23.4375 92 23.4375C89.2041 23.4375 86.9375 24.6128 86.9375 26.0625C86.9375 27.5122 89.2041 28.6875 92 28.6875Z" fill="#FFE500" stroke="url(#paint6_linear_3041_2783)" stroke-miterlimit="10" stroke-linecap="round" stroke-linejoin="round"/>
<path d="M9.36953 119.475C7.75286 119.475 6.3862 119.217 5.26953 118.7C4.16953 118.183 3.32786 117.475 2.74453 116.575C2.1612 115.658 1.86953 114.625 1.86953 113.475H5.34453C5.34453 113.958 5.47786 114.433 5.74453 114.9C6.0112 115.35 6.4362 115.717 7.01953 116C7.61953 116.283 8.40287 116.425 9.36953 116.425C10.2362 116.425 10.9612 116.3 11.5445 116.05C12.1279 115.8 12.5612 115.475 12.8445 115.075C13.1279 114.658 13.2695 114.192 13.2695 113.675C13.2695 113.025 12.9945 112.508 12.4445 112.125C11.8945 111.725 11.0445 111.475 9.89453 111.375L8.29453 111.25C6.54453 111.1 5.14453 110.558 4.09453 109.625C3.0612 108.675 2.54453 107.425 2.54453 105.875C2.54453 104.708 2.81953 103.708 3.36953 102.875C3.91953 102.025 4.6862 101.375 5.66953 100.925C6.66953 100.458 7.8362 100.225 9.16953 100.225C10.5529 100.225 11.7445 100.467 12.7445 100.95C13.7445 101.433 14.5195 102.117 15.0695 103C15.6195 103.867 15.8945 104.892 15.8945 106.075H12.4195C12.4195 105.575 12.2945 105.117 12.0445 104.7C11.8112 104.267 11.4529 103.925 10.9695 103.675C10.5029 103.408 9.90287 103.275 9.16953 103.275C8.46953 103.275 7.8862 103.392 7.41953 103.625C6.95286 103.858 6.60286 104.175 6.36953 104.575C6.1362 104.975 6.01953 105.408 6.01953 105.875C6.01953 106.442 6.22786 106.942 6.64453 107.375C7.0612 107.792 7.71953 108.033 8.61953 108.1L10.2195 108.25C11.5195 108.35 12.6612 108.625 13.6445 109.075C14.6279 109.525 15.3862 110.133 15.9195 110.9C16.4695 111.667 16.7445 112.592 16.7445 113.675C16.7445 114.825 16.4445 115.842 15.8445 116.725C15.2445 117.592 14.3862 118.267 13.2695 118.75C12.1695 119.233 10.8695 119.475 9.36953 119.475ZM19.7152 119V105.425H22.4652V111.25H22.2152C22.2152 109.883 22.3902 108.742 22.7402 107.825C23.0902 106.892 23.6069 106.192 24.2902 105.725C24.9902 105.242 25.8569 105 26.8902 105H27.0402C28.0902 105 28.9569 105.242 29.6402 105.725C30.3402 106.192 30.8569 106.892 31.1902 107.825C31.5402 108.742 31.7152 109.883 31.7152 111.25H30.8402C30.8402 109.883 31.0152 108.742 31.3652 107.825C31.7319 106.892 32.2569 106.192 32.9402 105.725C33.6402 105.242 34.5069 105 35.5402 105H35.6902C36.7402 105 37.6152 105.242 38.3152 105.725C39.0152 106.192 39.5402 106.892 39.8902 107.825C40.2569 108.742 40.4402 109.883 40.4402 111.25V119H36.9652V110.925C36.9652 110.075 36.7486 109.4 36.3152 108.9C35.8819 108.383 35.2652 108.125 34.4652 108.125C33.6652 108.125 33.0236 108.392 32.5402 108.925C32.0569 109.442 31.8152 110.142 31.8152 111.025V119H28.3402V110.925C28.3402 110.075 28.1236 109.4 27.6902 108.9C27.2569 108.383 26.6402 108.125 25.8402 108.125C25.0402 108.125 24.3986 108.392 23.9152 108.925C23.4319 109.442 23.1902 110.142 23.1902 111.025V119H19.7152ZM52.3787 119V114.975H51.8037V110.5C51.8037 109.717 51.612 109.133 51.2287 108.75C50.8454 108.367 50.2537 108.175 49.4537 108.175C49.037 108.175 48.537 108.183 47.9537 108.2C47.3704 108.217 46.7787 108.242 46.1787 108.275C45.5954 108.292 45.0704 108.317 44.6037 108.35V105.4C44.987 105.367 45.4204 105.333 45.9037 105.3C46.387 105.267 46.8787 105.25 47.3787 105.25C47.8954 105.233 48.3787 105.225 48.8287 105.225C50.2287 105.225 51.387 105.408 52.3037 105.775C53.237 106.142 53.937 106.717 54.4037 107.5C54.887 108.283 55.1287 109.308 55.1287 110.575V119H52.3787ZM48.0037 119.35C47.0204 119.35 46.1537 119.175 45.4037 118.825C44.6704 118.475 44.0954 117.975 43.6787 117.325C43.2787 116.675 43.0787 115.892 43.0787 114.975C43.0787 113.975 43.3204 113.158 43.8037 112.525C44.3037 111.892 44.9954 111.417 45.8787 111.1C46.7787 110.783 47.8287 110.625 49.0287 110.625H52.1787V112.7H48.9787C48.1787 112.7 47.562 112.9 47.1287 113.3C46.712 113.683 46.5037 114.183 46.5037 114.8C46.5037 115.417 46.712 115.917 47.1287 116.3C47.562 116.683 48.1787 116.875 48.9787 116.875C49.462 116.875 49.9037 116.792 50.3037 116.625C50.7204 116.442 51.062 116.142 51.3287 115.725C51.612 115.292 51.7704 114.708 51.8037 113.975L52.6537 114.95C52.5704 115.9 52.337 116.7 51.9537 117.35C51.587 118 51.0704 118.5 50.4037 118.85C49.7537 119.183 48.9537 119.35 48.0037 119.35ZM58.851 119V105.425H61.601V111.175H61.526C61.526 109.225 61.9426 107.75 62.776 106.75C63.6093 105.75 64.8343 105.25 66.451 105.25H66.951V108.275H66.001C64.8343 108.275 63.926 108.592 63.276 109.225C62.6426 109.842 62.326 110.742 62.326 111.925V119H58.851ZM75.4688 119.175C74.2188 119.175 73.1854 119.017 72.3688 118.7C71.5688 118.367 70.9688 117.817 70.5688 117.05C70.1688 116.267 69.9688 115.217 69.9688 113.9L69.9938 101.6H73.2438L73.2188 114.125C73.2188 114.792 73.3938 115.308 73.7438 115.675C74.1104 116.025 74.6271 116.2 75.2938 116.2H77.4188V119.175H75.4688ZM67.8188 107.975V105.425H77.4188V107.975H67.8188ZM94.2309 119.475C92.5809 119.475 91.1642 119.183 89.9809 118.6C88.7975 118.017 87.8309 117.258 87.0809 116.325C86.3475 115.392 85.8059 114.375 85.4559 113.275C85.1059 112.175 84.9309 111.117 84.9309 110.1V109.55C84.9309 108.417 85.1059 107.3 85.4559 106.2C85.8225 105.1 86.3809 104.1 87.1309 103.2C87.8809 102.3 88.8309 101.583 89.9809 101.05C91.1475 100.5 92.5225 100.225 94.1059 100.225C95.7559 100.225 97.1892 100.525 98.4059 101.125C99.6392 101.708 100.623 102.542 101.356 103.625C102.089 104.692 102.531 105.942 102.681 107.375H99.1059C98.9725 106.542 98.6725 105.842 98.2059 105.275C97.7559 104.692 97.1809 104.258 96.4809 103.975C95.7809 103.675 94.9892 103.525 94.1059 103.525C93.2059 103.525 92.4059 103.683 91.7059 104C91.0059 104.3 90.4225 104.733 89.9559 105.3C89.4892 105.867 89.1309 106.533 88.8809 107.3C88.6475 108.067 88.5309 108.917 88.5309 109.85C88.5309 110.75 88.6475 111.583 88.8809 112.35C89.1309 113.117 89.4975 113.792 89.9809 114.375C90.4642 114.942 91.0559 115.383 91.7559 115.7C92.4725 116.017 93.2975 116.175 94.2309 116.175C95.5975 116.175 96.7475 115.842 97.6809 115.175C98.6309 114.492 99.2059 113.542 99.4059 112.325H102.981C102.814 113.625 102.373 114.817 101.656 115.9C100.939 116.983 99.9559 117.85 98.7059 118.5C97.4559 119.15 95.9642 119.475 94.2309 119.475ZM112.227 119.475C111.027 119.475 109.968 119.283 109.052 118.9C108.135 118.517 107.36 118 106.727 117.35C106.093 116.683 105.61 115.933 105.277 115.1C104.96 114.267 104.802 113.4 104.802 112.5V111.975C104.802 111.042 104.968 110.158 105.302 109.325C105.652 108.475 106.143 107.725 106.777 107.075C107.427 106.408 108.21 105.892 109.127 105.525C110.043 105.142 111.077 104.95 112.227 104.95C113.377 104.95 114.41 105.142 115.327 105.525C116.243 105.892 117.018 106.408 117.652 107.075C118.302 107.725 118.793 108.475 119.127 109.325C119.46 110.158 119.627 111.042 119.627 111.975V112.5C119.627 113.4 119.46 114.267 119.127 115.1C118.81 115.933 118.335 116.683 117.702 117.35C117.068 118 116.293 118.517 115.377 118.9C114.46 119.283 113.41 119.475 112.227 119.475ZM112.227 116.5C113.077 116.5 113.793 116.317 114.377 115.95C114.96 115.567 115.402 115.058 115.702 114.425C116.002 113.775 116.152 113.042 116.152 112.225C116.152 111.392 115.993 110.658 115.677 110.025C115.377 109.375 114.927 108.867 114.327 108.5C113.743 108.117 113.043 107.925 112.227 107.925C111.41 107.925 110.702 108.117 110.102 108.5C109.518 108.867 109.068 109.375 108.752 110.025C108.435 110.658 108.277 111.392 108.277 112.225C108.277 113.042 108.427 113.775 108.727 114.425C109.043 115.058 109.493 115.567 110.077 115.95C110.66 116.317 111.377 116.5 112.227 116.5ZM122.844 119V100.75H126.319V119H122.844ZM121.144 103.35V100.75H126.319V103.35H121.144ZM130.462 119V100.75H133.937V119H130.462ZM128.762 103.35V100.75H133.937V103.35H128.762ZM143.979 119.475C142.812 119.475 141.787 119.275 140.904 118.875C140.037 118.475 139.312 117.942 138.729 117.275C138.162 116.592 137.729 115.833 137.429 115C137.145 114.167 137.004 113.317 137.004 112.45V111.975C137.004 111.075 137.145 110.208 137.429 109.375C137.729 108.525 138.162 107.775 138.729 107.125C139.312 106.458 140.029 105.933 140.879 105.55C141.729 105.15 142.712 104.95 143.829 104.95C145.295 104.95 146.52 105.275 147.504 105.925C148.504 106.558 149.254 107.4 149.754 108.45C150.254 109.483 150.504 110.6 150.504 111.8V113.05H138.479V110.925H148.329L147.254 111.975C147.254 111.108 147.129 110.367 146.879 109.75C146.629 109.133 146.245 108.658 145.729 108.325C145.229 107.992 144.595 107.825 143.829 107.825C143.062 107.825 142.412 108 141.879 108.35C141.345 108.7 140.937 109.208 140.654 109.875C140.387 110.525 140.254 111.308 140.254 112.225C140.254 113.075 140.387 113.833 140.654 114.5C140.92 115.15 141.329 115.667 141.879 116.05C142.429 116.417 143.129 116.6 143.979 116.6C144.829 116.6 145.52 116.433 146.054 116.1C146.587 115.75 146.929 115.325 147.079 114.825H150.279C150.079 115.758 149.695 116.575 149.129 117.275C148.562 117.975 147.837 118.517 146.954 118.9C146.087 119.283 145.095 119.475 143.979 119.475ZM158.707 124.35C158.057 124.35 157.39 124.325 156.707 124.275C156.04 124.225 155.415 124.158 154.832 124.075V121.175C155.432 121.242 156.073 121.3 156.757 121.35C157.44 121.417 158.082 121.45 158.682 121.45C159.798 121.45 160.698 121.317 161.382 121.05C162.082 120.783 162.59 120.358 162.907 119.775C163.24 119.208 163.407 118.483 163.407 117.6V114.925L164.157 113.225C164.107 114.475 163.848 115.542 163.382 116.425C162.915 117.292 162.282 117.958 161.482 118.425C160.682 118.875 159.757 119.1 158.707 119.1C157.773 119.1 156.923 118.925 156.157 118.575C155.407 118.225 154.757 117.742 154.207 117.125C153.673 116.508 153.257 115.783 152.957 114.95C152.657 114.117 152.507 113.225 152.507 112.275V111.75C152.507 110.8 152.657 109.917 152.957 109.1C153.273 108.267 153.715 107.542 154.282 106.925C154.848 106.308 155.523 105.833 156.307 105.5C157.09 105.167 157.957 105 158.907 105C160.023 105 160.99 105.242 161.807 105.725C162.64 106.208 163.29 106.908 163.757 107.825C164.223 108.742 164.482 109.867 164.532 111.2L163.932 111.3V105.425H166.682V117.4C166.682 119.05 166.398 120.383 165.832 121.4C165.265 122.417 164.39 123.158 163.207 123.625C162.04 124.108 160.54 124.35 158.707 124.35ZM159.707 116.125C160.373 116.125 160.982 115.975 161.532 115.675C162.082 115.375 162.523 114.942 162.857 114.375C163.19 113.808 163.357 113.125 163.357 112.325V111.45C163.357 110.683 163.182 110.033 162.832 109.5C162.498 108.967 162.057 108.567 161.507 108.3C160.957 108.017 160.357 107.875 159.707 107.875C158.973 107.875 158.323 108.05 157.757 108.4C157.207 108.733 156.773 109.208 156.457 109.825C156.14 110.442 155.982 111.175 155.982 112.025C155.982 112.858 156.14 113.583 156.457 114.2C156.773 114.817 157.207 115.292 157.757 115.625C158.323 115.958 158.973 116.125 159.707 116.125ZM176.547 119.475C175.38 119.475 174.355 119.275 173.472 118.875C172.605 118.475 171.88 117.942 171.297 117.275C170.73 116.592 170.297 115.833 169.997 115C169.714 114.167 169.572 113.317 169.572 112.45V111.975C169.572 111.075 169.714 110.208 169.997 109.375C170.297 108.525 170.73 107.775 171.297 107.125C171.88 106.458 172.597 105.933 173.447 105.55C174.297 105.15 175.28 104.95 176.397 104.95C177.864 104.95 179.089 105.275 180.072 105.925C181.072 106.558 181.822 107.4 182.322 108.45C182.822 109.483 183.072 110.6 183.072 111.8V113.05H171.047V110.925H180.897L179.822 111.975C179.822 111.108 179.697 110.367 179.447 109.75C179.197 109.133 178.814 108.658 178.297 108.325C177.797 107.992 177.164 107.825 176.397 107.825C175.63 107.825 174.98 108 174.447 108.35C173.914 108.7 173.505 109.208 173.222 109.875C172.955 110.525 172.822 111.308 172.822 112.225C172.822 113.075 172.955 113.833 173.222 114.5C173.489 115.15 173.897 115.667 174.447 116.05C174.997 116.417 175.697 116.6 176.547 116.6C177.397 116.6 178.089 116.433 178.622 116.1C179.155 115.75 179.497 115.325 179.647 114.825H182.847C182.647 115.758 182.264 116.575 181.697 117.275C181.13 117.975 180.405 118.517 179.522 118.9C178.655 119.283 177.664 119.475 176.547 119.475Z" fill="#14B8A6"/>
<defs>
<linearGradient id="paint0_linear_3041_2783" x1="118.625" y1="49.3471" x2="66.0742" y2="54.985" gradientUnits="userSpaceOnUse">
<stop offset="0.236377" stop-color="#14B8A6"/>
<stop offset="1" stop-color="#033D36"/>
</linearGradient>
<linearGradient id="paint1_linear_3041_2783" x1="116.375" y1="82.5828" x2="74.531" y2="99.687" gradientUnits="userSpaceOnUse">
<stop offset="0.236377" stop-color="#14B8A6"/>
<stop offset="1" stop-color="#033D36"/>
</linearGradient>
<linearGradient id="paint2_linear_3041_2783" x1="130.136" y1="27.1992" x2="54.2821" y2="33.6672" gradientUnits="userSpaceOnUse">
<stop offset="0.236377" stop-color="#14B8A6"/>
<stop offset="1" stop-color="#033D36"/>
</linearGradient>
<linearGradient id="paint3_linear_3041_2783" x1="88.8125" y1="47.0752" x2="70.0419" y2="47.5553" gradientUnits="userSpaceOnUse">
<stop offset="0.236377" stop-color="#14B8A6"/>
<stop offset="1" stop-color="#033D36"/>
</linearGradient>
<linearGradient id="paint4_linear_3041_2783" x1="75.003" y1="78.0503" x2="65.4148" y2="78.3996" gradientUnits="userSpaceOnUse">
<stop offset="0.236377" stop-color="#14B8A6"/>
<stop offset="1" stop-color="#033D36"/>
</linearGradient>
<linearGradient id="paint5_linear_3041_2783" x1="74" y1="71.1207" x2="66.1337" y2="71.5412" gradientUnits="userSpaceOnUse">
<stop offset="0.236377" stop-color="#14B8A6"/>
<stop offset="1" stop-color="#033D36"/>
</linearGradient>
<linearGradient id="paint6_linear_3041_2783" x1="97.0625" y1="25.9763" x2="87.0264" y2="27.0109" gradientUnits="userSpaceOnUse">
<stop offset="0.236377" stop-color="#14B8A6"/>
<stop offset="1" stop-color="#033D36"/>
</linearGradient>
</defs>
</svg>
